<mxfile host="app.diagrams.net" modified="2024-06-22T06:08:39.752Z" agent="Mozilla/5.0 (Macintosh; Intel Mac OS X 10_15_7) AppleWebKit/537.36 (KHTML, like Gecko) Chrome/126.0.0.0 Safari/537.36" etag="cBggq3bmj1d_Es0j-qYL" version="24.6.1" type="github">
  <diagram name="Page-1" id="T6FG5JUvPaCqkUUWs33g">
    <mxGraphModel dx="2555" dy="2103" grid="1" gridSize="10" guides="1" tooltips="1" connect="1" arrows="1" fold="1" page="1" pageScale="1" pageWidth="827" pageHeight="1169" math="0" shadow="0">
      <root>
        <mxCell id="0" />
        <mxCell id="1" parent="0" />
        <mxCell id="AsswK9h2NQhdAezXCvUA-1" style="edgeStyle=orthogonalEdgeStyle;rounded=0;orthogonalLoop=1;jettySize=auto;html=1;exitX=1;exitY=0.5;exitDx=0;exitDy=0;entryX=-0.042;entryY=0.4;entryDx=0;entryDy=0;entryPerimeter=0;" edge="1" parent="1" source="u7bU3b1OENKQPTIL70ho-2">
          <mxGeometry relative="1" as="geometry">
            <mxPoint x="130.0000000000004" y="234.8" as="targetPoint" />
          </mxGeometry>
        </mxCell>
        <mxCell id="AsswK9h2NQhdAezXCvUA-8" value="1. Read the seed url" style="edgeLabel;html=1;align=center;verticalAlign=middle;resizable=0;points=[];" vertex="1" connectable="0" parent="AsswK9h2NQhdAezXCvUA-1">
          <mxGeometry x="-0.1584" relative="1" as="geometry">
            <mxPoint x="-16" y="1" as="offset" />
          </mxGeometry>
        </mxCell>
        <mxCell id="u7bU3b1OENKQPTIL70ho-2" value="" style="shape=image;html=1;verticalAlign=top;verticalLabelPosition=bottom;labelBackgroundColor=#ffffff;imageAspect=0;aspect=fixed;image=https://cdn1.iconfinder.com/data/icons/KDE_Crystal_Diamond_2.5_Classical_Mod/128x128/mimetypes/html.png" parent="1" vertex="1">
          <mxGeometry x="-150" y="200" width="70" height="70" as="geometry" />
        </mxCell>
        <mxCell id="u7bU3b1OENKQPTIL70ho-3" value="seed url&lt;div&gt;&lt;span style=&quot;background-color: initial;&quot;&gt;Wikipedia:Contents/Categories&lt;/span&gt;&lt;/div&gt;" style="text;html=1;align=center;verticalAlign=middle;resizable=0;points=[];autosize=1;strokeColor=none;fillColor=none;" parent="1" vertex="1">
          <mxGeometry x="-210" y="267" width="190" height="40" as="geometry" />
        </mxCell>
        <mxCell id="AsswK9h2NQhdAezXCvUA-2" style="edgeStyle=orthogonalEdgeStyle;rounded=0;orthogonalLoop=1;jettySize=auto;html=1;" edge="1" parent="1">
          <mxGeometry relative="1" as="geometry">
            <mxPoint x="825" y="235" as="targetPoint" />
            <mxPoint x="600" y="235" as="sourcePoint" />
          </mxGeometry>
        </mxCell>
        <mxCell id="AsswK9h2NQhdAezXCvUA-9" value="2. URL info" style="edgeLabel;html=1;align=center;verticalAlign=middle;resizable=0;points=[];" vertex="1" connectable="0" parent="AsswK9h2NQhdAezXCvUA-2">
          <mxGeometry x="-0.309" y="1" relative="1" as="geometry">
            <mxPoint as="offset" />
          </mxGeometry>
        </mxCell>
        <mxCell id="AsswK9h2NQhdAezXCvUA-7" style="edgeStyle=orthogonalEdgeStyle;rounded=0;orthogonalLoop=1;jettySize=auto;html=1;" edge="1" parent="1">
          <mxGeometry relative="1" as="geometry">
            <mxPoint x="901.83" y="90" as="targetPoint" />
            <mxPoint x="902.09" y="180" as="sourcePoint" />
          </mxGeometry>
        </mxCell>
        <mxCell id="AsswK9h2NQhdAezXCvUA-15" value="4. Download the web page from wikipedia" style="edgeLabel;html=1;align=center;verticalAlign=middle;resizable=0;points=[];" vertex="1" connectable="0" parent="AsswK9h2NQhdAezXCvUA-7">
          <mxGeometry x="-0.042" y="1" relative="1" as="geometry">
            <mxPoint x="17" as="offset" />
          </mxGeometry>
        </mxCell>
        <mxCell id="u7bU3b1OENKQPTIL70ho-10" value="" style="shadow=0;dashed=0;html=1;strokeColor=none;fillColor=#4495D1;labelPosition=center;verticalLabelPosition=bottom;verticalAlign=top;align=center;outlineConnect=0;shape=mxgraph.veeam.2d.download;" parent="1" vertex="1">
          <mxGeometry x="857.4" y="196.29999999999998" width="44.8" height="44.8" as="geometry" />
        </mxCell>
        <mxCell id="u7bU3b1OENKQPTIL70ho-13" value="" style="shadow=0;dashed=0;html=1;strokeColor=none;fillColor=#4495D1;labelPosition=center;verticalLabelPosition=bottom;verticalAlign=top;align=center;outlineConnect=0;shape=mxgraph.veeam.2d.download;" parent="1" vertex="1">
          <mxGeometry x="877.4" y="211.89999999999998" width="44.8" height="44.8" as="geometry" />
        </mxCell>
        <mxCell id="u7bU3b1OENKQPTIL70ho-14" value="" style="shadow=0;dashed=0;html=1;strokeColor=none;fillColor=#4495D1;labelPosition=center;verticalLabelPosition=bottom;verticalAlign=top;align=center;outlineConnect=0;shape=mxgraph.veeam.2d.download;" parent="1" vertex="1">
          <mxGeometry x="902.1999999999999" y="233.7" width="44.8" height="44.8" as="geometry" />
        </mxCell>
        <mxCell id="u7bU3b1OENKQPTIL70ho-15" value="" style="image;aspect=fixed;perimeter=ellipsePerimeter;html=1;align=center;shadow=0;dashed=0;spacingTop=3;image=img/lib/active_directory/internet_globe.svg;" parent="1" vertex="1">
          <mxGeometry x="872.1999999999999" y="30" width="60" height="60" as="geometry" />
        </mxCell>
        <mxCell id="u7bU3b1OENKQPTIL70ho-16" value="Internet" style="text;html=1;align=center;verticalAlign=middle;resizable=0;points=[];autosize=1;strokeColor=none;fillColor=none;" parent="1" vertex="1">
          <mxGeometry x="879.8000000000001" y="-10" width="60" height="30" as="geometry" />
        </mxCell>
        <mxCell id="AsswK9h2NQhdAezXCvUA-26" style="edgeStyle=orthogonalEdgeStyle;rounded=0;orthogonalLoop=1;jettySize=auto;html=1;" edge="1" parent="1">
          <mxGeometry relative="1" as="geometry">
            <mxPoint x="902" y="450" as="targetPoint" />
            <mxPoint x="902.2000000000003" y="319.9999999999999" as="sourcePoint" />
          </mxGeometry>
        </mxCell>
        <mxCell id="AsswK9h2NQhdAezXCvUA-27" value="5. Parse the downloaded HTML" style="edgeLabel;html=1;align=center;verticalAlign=middle;resizable=0;points=[];" vertex="1" connectable="0" parent="AsswK9h2NQhdAezXCvUA-26">
          <mxGeometry x="0.03" relative="1" as="geometry">
            <mxPoint x="3" y="8" as="offset" />
          </mxGeometry>
        </mxCell>
        <mxCell id="u7bU3b1OENKQPTIL70ho-17" value="HTML Downloader services" style="text;html=1;align=center;verticalAlign=middle;resizable=0;points=[];autosize=1;strokeColor=none;fillColor=none;" parent="1" vertex="1">
          <mxGeometry x="817.2" y="279.6" width="170" height="30" as="geometry" />
        </mxCell>
        <mxCell id="u7bU3b1OENKQPTIL70ho-19" value="DNS resolver" style="text;html=1;align=center;verticalAlign=middle;resizable=0;points=[];autosize=1;strokeColor=none;fillColor=none;" parent="1" vertex="1">
          <mxGeometry x="1245" y="279.6" width="90" height="30" as="geometry" />
        </mxCell>
        <mxCell id="AsswK9h2NQhdAezXCvUA-12" value="" style="rounded=0;orthogonalLoop=1;jettySize=auto;html=1;" edge="1" parent="1">
          <mxGeometry relative="1" as="geometry">
            <mxPoint x="1185" y="232.6" as="sourcePoint" />
            <mxPoint x="1265" y="232.62857142857135" as="targetPoint" />
          </mxGeometry>
        </mxCell>
        <mxCell id="AsswK9h2NQhdAezXCvUA-3" value="" style="sketch=0;points=[[0.015,0.015,0],[0.985,0.015,0],[0.985,0.985,0],[0.015,0.985,0],[0.25,0,0],[0.5,0,0],[0.75,0,0],[1,0.25,0],[1,0.5,0],[1,0.75,0],[0.75,1,0],[0.5,1,0],[0.25,1,0],[0,0.75,0],[0,0.5,0],[0,0.25,0]];verticalLabelPosition=bottom;html=1;verticalAlign=top;aspect=fixed;align=center;pointerEvents=1;shape=mxgraph.cisco19.dns_server;fillColor=#005073;strokeColor=none;" vertex="1" parent="1">
          <mxGeometry x="1265" y="200" width="38.5" height="70" as="geometry" />
        </mxCell>
        <mxCell id="AsswK9h2NQhdAezXCvUA-4" value="DNS Cache" style="sketch=0;outlineConnect=0;fontColor=#232F3E;gradientColor=none;strokeColor=#232F3E;fillColor=#ffffff;dashed=0;verticalLabelPosition=bottom;verticalAlign=top;align=center;html=1;fontSize=12;fontStyle=0;aspect=fixed;shape=mxgraph.aws4.resourceIcon;resIcon=mxgraph.aws4.cache_node;" vertex="1" parent="1">
          <mxGeometry x="1115" y="195.2" width="84.4" height="84.4" as="geometry" />
        </mxCell>
        <mxCell id="AsswK9h2NQhdAezXCvUA-11" style="edgeStyle=orthogonalEdgeStyle;rounded=0;orthogonalLoop=1;jettySize=auto;html=1;exitX=1.019;exitY=0.41;exitDx=0;exitDy=0;exitPerimeter=0;" edge="1" parent="1" source="AsswK9h2NQhdAezXCvUA-28" target="AsswK9h2NQhdAezXCvUA-4">
          <mxGeometry relative="1" as="geometry">
            <mxPoint x="985" y="237" as="sourcePoint" />
            <mxPoint x="1085" y="237" as="targetPoint" />
          </mxGeometry>
        </mxCell>
        <mxCell id="AsswK9h2NQhdAezXCvUA-24" value="3. Get IP address" style="edgeLabel;html=1;align=center;verticalAlign=middle;resizable=0;points=[];" vertex="1" connectable="0" parent="AsswK9h2NQhdAezXCvUA-11">
          <mxGeometry x="-0.2939" y="-1" relative="1" as="geometry">
            <mxPoint x="23" y="-1" as="offset" />
          </mxGeometry>
        </mxCell>
        <mxCell id="AsswK9h2NQhdAezXCvUA-38" style="edgeStyle=orthogonalEdgeStyle;rounded=0;orthogonalLoop=1;jettySize=auto;html=1;" edge="1" parent="1" source="AsswK9h2NQhdAezXCvUA-16">
          <mxGeometry relative="1" as="geometry">
            <mxPoint x="715" y="484" as="targetPoint" />
          </mxGeometry>
        </mxCell>
        <mxCell id="AsswK9h2NQhdAezXCvUA-39" value="6. Store Objects" style="edgeLabel;html=1;align=center;verticalAlign=middle;resizable=0;points=[];" vertex="1" connectable="0" parent="AsswK9h2NQhdAezXCvUA-38">
          <mxGeometry x="0.1305" y="1" relative="1" as="geometry">
            <mxPoint as="offset" />
          </mxGeometry>
        </mxCell>
        <mxCell id="AsswK9h2NQhdAezXCvUA-16" value="" style="aspect=fixed;sketch=0;html=1;dashed=0;whitespace=wrap;verticalLabelPosition=bottom;verticalAlign=top;fillColor=#2875E2;strokeColor=#ffffff;points=[[0.005,0.63,0],[0.1,0.2,0],[0.9,0.2,0],[0.5,0,0],[0.995,0.63,0],[0.72,0.99,0],[0.5,1,0],[0.28,0.99,0]];shape=mxgraph.kubernetes.icon2;prIcon=pod" vertex="1" parent="1">
          <mxGeometry x="871.2" y="460" width="51" height="48.96" as="geometry" />
        </mxCell>
        <mxCell id="AsswK9h2NQhdAezXCvUA-17" value="HTML Parser service" style="text;html=1;align=center;verticalAlign=middle;resizable=0;points=[];autosize=1;strokeColor=none;fillColor=none;" vertex="1" parent="1">
          <mxGeometry x="835.0000000000001" y="521.51" width="140" height="30" as="geometry" />
        </mxCell>
        <mxCell id="AsswK9h2NQhdAezXCvUA-23" value="" style="aspect=fixed;sketch=0;html=1;dashed=0;whitespace=wrap;verticalLabelPosition=bottom;verticalAlign=top;fillColor=#2875E2;strokeColor=#ffffff;points=[[0.005,0.63,0],[0.1,0.2,0],[0.9,0.2,0],[0.5,0,0],[0.995,0.63,0],[0.72,0.99,0],[0.5,1,0],[0.28,0.99,0]];shape=mxgraph.kubernetes.icon2;prIcon=pod" vertex="1" parent="1">
          <mxGeometry x="895" y="480" width="44.8" height="43.01" as="geometry" />
        </mxCell>
        <mxCell id="AsswK9h2NQhdAezXCvUA-28" value="" style="whiteSpace=wrap;html=1;fillColor=none;" vertex="1" parent="1">
          <mxGeometry x="825" y="181.1" width="150" height="138.9" as="geometry" />
        </mxCell>
        <mxCell id="AsswK9h2NQhdAezXCvUA-36" value="" style="sketch=0;outlineConnect=0;fontColor=#232F3E;gradientColor=none;fillColor=#7AA116;strokeColor=none;dashed=0;verticalLabelPosition=bottom;verticalAlign=top;align=center;html=1;fontSize=12;fontStyle=0;aspect=fixed;pointerEvents=1;shape=mxgraph.aws4.bucket_with_objects;" vertex="1" parent="1">
          <mxGeometry x="631.88" y="401.51" width="56.24" height="58.49" as="geometry" />
        </mxCell>
        <mxCell id="AsswK9h2NQhdAezXCvUA-37" value="HTML bucket" style="text;html=1;align=center;verticalAlign=middle;resizable=0;points=[];autosize=1;strokeColor=none;fillColor=none;" vertex="1" parent="1">
          <mxGeometry x="615" y="460" width="90" height="30" as="geometry" />
        </mxCell>
        <mxCell id="AsswK9h2NQhdAezXCvUA-40" value="" style="sketch=0;outlineConnect=0;fontColor=#232F3E;gradientColor=none;fillColor=#7AA116;strokeColor=none;dashed=0;verticalLabelPosition=bottom;verticalAlign=top;align=center;html=1;fontSize=12;fontStyle=0;aspect=fixed;pointerEvents=1;shape=mxgraph.aws4.bucket_with_objects;" vertex="1" parent="1">
          <mxGeometry x="631.88" y="508.96" width="56.24" height="58.49" as="geometry" />
        </mxCell>
        <mxCell id="AsswK9h2NQhdAezXCvUA-41" value="image bucket" style="text;html=1;align=center;verticalAlign=middle;resizable=0;points=[];autosize=1;strokeColor=none;fillColor=none;" vertex="1" parent="1">
          <mxGeometry x="615" y="567.45" width="90" height="30" as="geometry" />
        </mxCell>
        <mxCell id="AsswK9h2NQhdAezXCvUA-47" style="edgeStyle=orthogonalEdgeStyle;rounded=0;orthogonalLoop=1;jettySize=auto;html=1;" edge="1" parent="1" source="AsswK9h2NQhdAezXCvUA-42">
          <mxGeometry relative="1" as="geometry">
            <mxPoint x="455" y="484" as="targetPoint" />
          </mxGeometry>
        </mxCell>
        <mxCell id="AsswK9h2NQhdAezXCvUA-113" style="edgeStyle=none;rounded=0;orthogonalLoop=1;jettySize=auto;html=1;" edge="1" parent="1" source="AsswK9h2NQhdAezXCvUA-42">
          <mxGeometry relative="1" as="geometry">
            <mxPoint x="660" y="750" as="targetPoint" />
          </mxGeometry>
        </mxCell>
        <mxCell id="AsswK9h2NQhdAezXCvUA-114" value="7. Take snapshots" style="edgeLabel;html=1;align=center;verticalAlign=middle;resizable=0;points=[];" vertex="1" connectable="0" parent="AsswK9h2NQhdAezXCvUA-113">
          <mxGeometry x="0.0505" relative="1" as="geometry">
            <mxPoint as="offset" />
          </mxGeometry>
        </mxCell>
        <mxCell id="AsswK9h2NQhdAezXCvUA-42" value="" style="whiteSpace=wrap;html=1;fillColor=none;" vertex="1" parent="1">
          <mxGeometry x="605" y="374.48" width="110" height="220" as="geometry" />
        </mxCell>
        <mxCell id="AsswK9h2NQhdAezXCvUA-43" value="" style="aspect=fixed;sketch=0;html=1;dashed=0;whitespace=wrap;verticalLabelPosition=bottom;verticalAlign=top;fillColor=#2875E2;strokeColor=#ffffff;points=[[0.005,0.63,0],[0.1,0.2,0],[0.9,0.2,0],[0.5,0,0],[0.995,0.63,0],[0.72,0.99,0],[0.5,1,0],[0.28,0.99,0]];shape=mxgraph.kubernetes.icon2;prIcon=pod" vertex="1" parent="1">
          <mxGeometry x="381.20000000000005" y="450" width="51" height="48.96" as="geometry" />
        </mxCell>
        <mxCell id="AsswK9h2NQhdAezXCvUA-52" style="edgeStyle=orthogonalEdgeStyle;rounded=0;orthogonalLoop=1;jettySize=auto;html=1;" edge="1" parent="1" source="AsswK9h2NQhdAezXCvUA-44">
          <mxGeometry relative="1" as="geometry">
            <mxPoint x="425" y="650" as="targetPoint" />
          </mxGeometry>
        </mxCell>
        <mxCell id="AsswK9h2NQhdAezXCvUA-44" value="Duplicate identifier&lt;div&gt;SIMHASH&lt;/div&gt;" style="text;html=1;align=center;verticalAlign=middle;resizable=0;points=[];autosize=1;strokeColor=none;fillColor=none;" vertex="1" parent="1">
          <mxGeometry x="365.0000000000001" y="506.51000000000005" width="120" height="40" as="geometry" />
        </mxCell>
        <mxCell id="AsswK9h2NQhdAezXCvUA-45" value="" style="aspect=fixed;sketch=0;html=1;dashed=0;whitespace=wrap;verticalLabelPosition=bottom;verticalAlign=top;fillColor=#2875E2;strokeColor=#ffffff;points=[[0.005,0.63,0],[0.1,0.2,0],[0.9,0.2,0],[0.5,0,0],[0.995,0.63,0],[0.72,0.99,0],[0.5,1,0],[0.28,0.99,0]];shape=mxgraph.kubernetes.icon2;prIcon=pod" vertex="1" parent="1">
          <mxGeometry x="410" y="468.5" width="44.8" height="43.01" as="geometry" />
        </mxCell>
        <mxCell id="AsswK9h2NQhdAezXCvUA-49" value="" style="outlineConnect=0;dashed=0;verticalLabelPosition=bottom;verticalAlign=top;align=center;html=1;shape=mxgraph.aws3.queue;fillColor=#D9A741;gradientColor=none;" vertex="1" parent="1">
          <mxGeometry x="495" y="468.5" width="50" height="30" as="geometry" />
        </mxCell>
        <mxCell id="AsswK9h2NQhdAezXCvUA-51" value="8" style="text;html=1;align=center;verticalAlign=middle;resizable=0;points=[];autosize=1;strokeColor=none;fillColor=none;" vertex="1" parent="1">
          <mxGeometry x="500" y="438" width="30" height="30" as="geometry" />
        </mxCell>
        <mxCell id="AsswK9h2NQhdAezXCvUA-53" value="" style="outlineConnect=0;dashed=0;verticalLabelPosition=bottom;verticalAlign=top;align=center;html=1;shape=mxgraph.aws3.queue;fillColor=#D9A741;gradientColor=none;" vertex="1" parent="1">
          <mxGeometry x="404.8" y="575" width="50" height="30" as="geometry" />
        </mxCell>
        <mxCell id="AsswK9h2NQhdAezXCvUA-54" value="9" style="text;html=1;align=center;verticalAlign=middle;resizable=0;points=[];autosize=1;strokeColor=none;fillColor=none;" vertex="1" parent="1">
          <mxGeometry x="430" y="548" width="30" height="30" as="geometry" />
        </mxCell>
        <mxCell id="AsswK9h2NQhdAezXCvUA-55" value="" style="aspect=fixed;sketch=0;html=1;dashed=0;whitespace=wrap;verticalLabelPosition=bottom;verticalAlign=top;fillColor=#2875E2;strokeColor=#ffffff;points=[[0.005,0.63,0],[0.1,0.2,0],[0.9,0.2,0],[0.5,0,0],[0.995,0.63,0],[0.72,0.99,0],[0.5,1,0],[0.28,0.99,0]];shape=mxgraph.kubernetes.icon2;prIcon=pod" vertex="1" parent="1">
          <mxGeometry x="381.20000000000005" y="650" width="51" height="48.96" as="geometry" />
        </mxCell>
        <mxCell id="AsswK9h2NQhdAezXCvUA-56" value="URL Extractor" style="text;html=1;align=center;verticalAlign=middle;resizable=0;points=[];autosize=1;strokeColor=none;fillColor=none;" vertex="1" parent="1">
          <mxGeometry x="375.0000000000001" y="711.51" width="100" height="30" as="geometry" />
        </mxCell>
        <mxCell id="AsswK9h2NQhdAezXCvUA-57" value="" style="aspect=fixed;sketch=0;html=1;dashed=0;whitespace=wrap;verticalLabelPosition=bottom;verticalAlign=top;fillColor=#2875E2;strokeColor=#ffffff;points=[[0.005,0.63,0],[0.1,0.2,0],[0.9,0.2,0],[0.5,0,0],[0.995,0.63,0],[0.72,0.99,0],[0.5,1,0],[0.28,0.99,0]];shape=mxgraph.kubernetes.icon2;prIcon=pod" vertex="1" parent="1">
          <mxGeometry x="410" y="668.5" width="44.8" height="43.01" as="geometry" />
        </mxCell>
        <mxCell id="AsswK9h2NQhdAezXCvUA-58" value="" style="aspect=fixed;sketch=0;html=1;dashed=0;whitespace=wrap;verticalLabelPosition=bottom;verticalAlign=top;fillColor=#2875E2;strokeColor=#ffffff;points=[[0.005,0.63,0],[0.1,0.2,0],[0.9,0.2,0],[0.5,0,0],[0.995,0.63,0],[0.72,0.99,0],[0.5,1,0],[0.28,0.99,0]];shape=mxgraph.kubernetes.icon2;prIcon=pod" vertex="1" parent="1">
          <mxGeometry x="379.00000000000006" y="830" width="51" height="48.96" as="geometry" />
        </mxCell>
        <mxCell id="AsswK9h2NQhdAezXCvUA-59" value="URL Filter" style="text;html=1;align=center;verticalAlign=middle;resizable=0;points=[];autosize=1;strokeColor=none;fillColor=none;" vertex="1" parent="1">
          <mxGeometry x="375.0000000000001" y="891.51" width="80" height="30" as="geometry" />
        </mxCell>
        <mxCell id="AsswK9h2NQhdAezXCvUA-60" value="" style="aspect=fixed;sketch=0;html=1;dashed=0;whitespace=wrap;verticalLabelPosition=bottom;verticalAlign=top;fillColor=#2875E2;strokeColor=#ffffff;points=[[0.005,0.63,0],[0.1,0.2,0],[0.9,0.2,0],[0.5,0,0],[0.995,0.63,0],[0.72,0.99,0],[0.5,1,0],[0.28,0.99,0]];shape=mxgraph.kubernetes.icon2;prIcon=pod" vertex="1" parent="1">
          <mxGeometry x="405" y="848.5" width="39.8" height="38.21" as="geometry" />
        </mxCell>
        <mxCell id="AsswK9h2NQhdAezXCvUA-61" style="edgeStyle=orthogonalEdgeStyle;rounded=0;orthogonalLoop=1;jettySize=auto;html=1;" edge="1" parent="1">
          <mxGeometry relative="1" as="geometry">
            <mxPoint x="415.2" y="833" as="targetPoint" />
            <mxPoint x="415.2" y="730" as="sourcePoint" />
          </mxGeometry>
        </mxCell>
        <mxCell id="AsswK9h2NQhdAezXCvUA-62" value="" style="outlineConnect=0;dashed=0;verticalLabelPosition=bottom;verticalAlign=top;align=center;html=1;shape=mxgraph.aws3.queue;fillColor=#D9A741;gradientColor=none;" vertex="1" parent="1">
          <mxGeometry x="395" y="758" width="50" height="30" as="geometry" />
        </mxCell>
        <mxCell id="AsswK9h2NQhdAezXCvUA-63" value="10" style="text;html=1;align=center;verticalAlign=middle;resizable=0;points=[];autosize=1;strokeColor=none;fillColor=none;" vertex="1" parent="1">
          <mxGeometry x="419.8" y="728" width="40" height="30" as="geometry" />
        </mxCell>
        <mxCell id="AsswK9h2NQhdAezXCvUA-67" value="" style="aspect=fixed;sketch=0;html=1;dashed=0;whitespace=wrap;verticalLabelPosition=bottom;verticalAlign=top;fillColor=#2875E2;strokeColor=#ffffff;points=[[0.005,0.63,0],[0.1,0.2,0],[0.9,0.2,0],[0.5,0,0],[0.995,0.63,0],[0.72,0.99,0],[0.5,1,0],[0.28,0.99,0]];shape=mxgraph.kubernetes.icon2;prIcon=pod" vertex="1" parent="1">
          <mxGeometry x="120.00000000000006" y="830" width="51" height="48.96" as="geometry" />
        </mxCell>
        <mxCell id="AsswK9h2NQhdAezXCvUA-68" value="URL already crawled finder" style="text;html=1;align=center;verticalAlign=middle;resizable=0;points=[];autosize=1;strokeColor=none;fillColor=none;" vertex="1" parent="1">
          <mxGeometry x="65.00000000000011" y="898.21" width="170" height="30" as="geometry" />
        </mxCell>
        <mxCell id="AsswK9h2NQhdAezXCvUA-69" value="" style="aspect=fixed;sketch=0;html=1;dashed=0;whitespace=wrap;verticalLabelPosition=bottom;verticalAlign=top;fillColor=#2875E2;strokeColor=#ffffff;points=[[0.005,0.63,0],[0.1,0.2,0],[0.9,0.2,0],[0.5,0,0],[0.995,0.63,0],[0.72,0.99,0],[0.5,1,0],[0.28,0.99,0]];shape=mxgraph.kubernetes.icon2;prIcon=pod" vertex="1" parent="1">
          <mxGeometry x="115.09999999999997" y="860" width="39.8" height="38.21" as="geometry" />
        </mxCell>
        <mxCell id="AsswK9h2NQhdAezXCvUA-73" value="" style="outlineConnect=0;dashed=0;verticalLabelPosition=bottom;verticalAlign=top;align=center;html=1;shape=mxgraph.aws3.dynamo_db;fillColor=#2E73B8;gradientColor=none;" vertex="1" parent="1">
          <mxGeometry x="115" y="1047.22" width="56" height="70" as="geometry" />
        </mxCell>
        <mxCell id="AsswK9h2NQhdAezXCvUA-74" style="edgeStyle=orthogonalEdgeStyle;rounded=0;orthogonalLoop=1;jettySize=auto;html=1;entryX=0.455;entryY=0.94;entryDx=0;entryDy=0;entryPerimeter=0;" edge="1" parent="1" source="AsswK9h2NQhdAezXCvUA-73" target="AsswK9h2NQhdAezXCvUA-68">
          <mxGeometry relative="1" as="geometry">
            <Array as="points" />
          </mxGeometry>
        </mxCell>
        <mxCell id="AsswK9h2NQhdAezXCvUA-117" value="12 Verify if the URL is already crawled" style="edgeLabel;html=1;align=center;verticalAlign=middle;resizable=0;points=[];" vertex="1" connectable="0" parent="AsswK9h2NQhdAezXCvUA-74">
          <mxGeometry x="-0.4778" y="3" relative="1" as="geometry">
            <mxPoint as="offset" />
          </mxGeometry>
        </mxCell>
        <mxCell id="AsswK9h2NQhdAezXCvUA-122" style="edgeStyle=none;rounded=0;orthogonalLoop=1;jettySize=auto;html=1;" edge="1" parent="1" source="AsswK9h2NQhdAezXCvUA-85">
          <mxGeometry relative="1" as="geometry">
            <mxPoint x="120" y="85.90000000000009" as="targetPoint" />
          </mxGeometry>
        </mxCell>
        <mxCell id="AsswK9h2NQhdAezXCvUA-85" value="" style="image;aspect=fixed;html=1;points=[];align=center;fontSize=12;image=img/lib/azure2/other/Data_Collection_Rules.svg;" vertex="1" parent="1">
          <mxGeometry x="-8.760000000000002" y="55.9" width="58.76" height="60" as="geometry" />
        </mxCell>
        <mxCell id="AsswK9h2NQhdAezXCvUA-97" value="" style="sketch=0;points=[[0,0,0],[0.25,0,0],[0.5,0,0],[0.75,0,0],[1,0,0],[0,1,0],[0.25,1,0],[0.5,1,0],[0.75,1,0],[1,1,0],[0,0.25,0],[0,0.5,0],[0,0.75,0],[1,0.25,0],[1,0.5,0],[1,0.75,0]];outlineConnect=0;fontColor=#232F3E;fillColor=#E7157B;strokeColor=#ffffff;dashed=0;verticalLabelPosition=bottom;verticalAlign=top;align=center;html=1;fontSize=12;fontStyle=0;aspect=fixed;shape=mxgraph.aws4.resourceIcon;resIcon=mxgraph.aws4.eventbridge;" vertex="1" parent="1">
          <mxGeometry x="125" y="55.899999999999984" width="58.1" height="58.1" as="geometry" />
        </mxCell>
        <mxCell id="AsswK9h2NQhdAezXCvUA-123" style="edgeStyle=none;rounded=0;orthogonalLoop=1;jettySize=auto;html=1;" edge="1" parent="1" source="AsswK9h2NQhdAezXCvUA-98">
          <mxGeometry relative="1" as="geometry">
            <mxPoint x="160" y="200" as="targetPoint" />
          </mxGeometry>
        </mxCell>
        <mxCell id="AsswK9h2NQhdAezXCvUA-98" value="Event bridge scheduler" style="text;html=1;align=center;verticalAlign=middle;resizable=0;points=[];autosize=1;strokeColor=none;fillColor=none;" vertex="1" parent="1">
          <mxGeometry x="84.99999999999999" y="115.9" width="150" height="30" as="geometry" />
        </mxCell>
        <mxCell id="AsswK9h2NQhdAezXCvUA-99" value="" style="outlineConnect=0;dashed=0;verticalLabelPosition=bottom;verticalAlign=top;align=center;html=1;shape=mxgraph.aws3.lambda_function;fillColor=#F58534;gradientColor=none;" vertex="1" parent="1">
          <mxGeometry x="130" y="206.6" width="60" height="56.8" as="geometry" />
        </mxCell>
        <mxCell id="AsswK9h2NQhdAezXCvUA-110" value="Snapshot Archive" style="sketch=0;outlineConnect=0;fontColor=#232F3E;gradientColor=none;strokeColor=#232F3E;fillColor=#ffffff;dashed=0;verticalLabelPosition=bottom;verticalAlign=top;align=center;html=1;fontSize=12;fontStyle=0;aspect=fixed;shape=mxgraph.aws4.resourceIcon;resIcon=mxgraph.aws4.snapshot;" vertex="1" parent="1">
          <mxGeometry x="605" y="753.98" width="115.5" height="115.5" as="geometry" />
        </mxCell>
        <mxCell id="AsswK9h2NQhdAezXCvUA-71" value="" style="outlineConnect=0;dashed=0;verticalLabelPosition=bottom;verticalAlign=top;align=center;html=1;shape=mxgraph.aws3.queue;fillColor=#D9A741;gradientColor=none;" vertex="1" parent="1">
          <mxGeometry x="270" y="839.48" width="50" height="30" as="geometry" />
        </mxCell>
        <mxCell id="AsswK9h2NQhdAezXCvUA-120" value="Lambda" style="text;html=1;align=center;verticalAlign=middle;resizable=0;points=[];autosize=1;strokeColor=none;fillColor=none;" vertex="1" parent="1">
          <mxGeometry x="130" y="263.4" width="70" height="30" as="geometry" />
        </mxCell>
        <mxCell id="AsswK9h2NQhdAezXCvUA-121" value="&lt;span style=&quot;font-size: 11px; background-color: rgb(255, 255, 255);&quot;&gt;Priority Rules&lt;/span&gt;" style="text;html=1;align=center;verticalAlign=middle;resizable=0;points=[];autosize=1;strokeColor=none;fillColor=none;" vertex="1" parent="1">
          <mxGeometry x="-15" y="130" width="90" height="30" as="geometry" />
        </mxCell>
        <mxCell id="AsswK9h2NQhdAezXCvUA-124" value="11" style="text;html=1;align=center;verticalAlign=middle;resizable=0;points=[];autosize=1;strokeColor=none;fillColor=none;" vertex="1" parent="1">
          <mxGeometry x="335" y="818.5" width="40" height="30" as="geometry" />
        </mxCell>
        <mxCell id="AsswK9h2NQhdAezXCvUA-125" value="Queue 1" style="sketch=0;outlineConnect=0;fontColor=#232F3E;gradientColor=none;strokeColor=#232F3E;fillColor=#ffffff;dashed=0;verticalLabelPosition=bottom;verticalAlign=top;align=center;html=1;fontSize=12;fontStyle=0;aspect=fixed;shape=mxgraph.aws4.resourceIcon;resIcon=mxgraph.aws4.queue;" vertex="1" parent="1">
          <mxGeometry x="290" y="114" width="60" height="60" as="geometry" />
        </mxCell>
        <mxCell id="AsswK9h2NQhdAezXCvUA-126" value="Queue 2" style="sketch=0;outlineConnect=0;fontColor=#232F3E;gradientColor=none;strokeColor=#232F3E;fillColor=#ffffff;dashed=0;verticalLabelPosition=bottom;verticalAlign=top;align=center;html=1;fontSize=12;fontStyle=0;aspect=fixed;shape=mxgraph.aws4.resourceIcon;resIcon=mxgraph.aws4.queue;" vertex="1" parent="1">
          <mxGeometry x="290" y="203.4" width="60" height="60" as="geometry" />
        </mxCell>
        <mxCell id="AsswK9h2NQhdAezXCvUA-127" value="Queue 3" style="sketch=0;outlineConnect=0;fontColor=#232F3E;gradientColor=none;strokeColor=#232F3E;fillColor=#ffffff;dashed=0;verticalLabelPosition=bottom;verticalAlign=top;align=center;html=1;fontSize=12;fontStyle=0;aspect=fixed;shape=mxgraph.aws4.resourceIcon;resIcon=mxgraph.aws4.queue;" vertex="1" parent="1">
          <mxGeometry x="290" y="300.00000000000006" width="60" height="60" as="geometry" />
        </mxCell>
        <mxCell id="AsswK9h2NQhdAezXCvUA-129" value="" style="edgeStyle=none;orthogonalLoop=1;jettySize=auto;html=1;rounded=0;entryX=0.321;entryY=1.039;entryDx=0;entryDy=0;entryPerimeter=0;" edge="1" parent="1" source="AsswK9h2NQhdAezXCvUA-67" target="AsswK9h2NQhdAezXCvUA-120">
          <mxGeometry width="100" relative="1" as="geometry">
            <mxPoint x="-30" y="730" as="sourcePoint" />
            <mxPoint x="120" y="310" as="targetPoint" />
            <Array as="points" />
          </mxGeometry>
        </mxCell>
        <mxCell id="AsswK9h2NQhdAezXCvUA-130" value="12. If not found add to url frontier for crawling" style="edgeLabel;html=1;align=center;verticalAlign=middle;resizable=0;points=[];" vertex="1" connectable="0" parent="AsswK9h2NQhdAezXCvUA-129">
          <mxGeometry x="0.0474" relative="1" as="geometry">
            <mxPoint as="offset" />
          </mxGeometry>
        </mxCell>
        <mxCell id="AsswK9h2NQhdAezXCvUA-131" style="edgeStyle=none;rounded=0;orthogonalLoop=1;jettySize=auto;html=1;entryX=0.817;entryY=0.534;entryDx=0;entryDy=0;entryPerimeter=0;" edge="1" parent="1" source="AsswK9h2NQhdAezXCvUA-71" target="AsswK9h2NQhdAezXCvUA-67">
          <mxGeometry relative="1" as="geometry" />
        </mxCell>
        <mxCell id="AsswK9h2NQhdAezXCvUA-132" style="edgeStyle=none;rounded=0;orthogonalLoop=1;jettySize=auto;html=1;entryX=1;entryY=0.5;entryDx=0;entryDy=0;entryPerimeter=0;" edge="1" parent="1" source="AsswK9h2NQhdAezXCvUA-58" target="AsswK9h2NQhdAezXCvUA-71">
          <mxGeometry relative="1" as="geometry" />
        </mxCell>
        <mxCell id="AsswK9h2NQhdAezXCvUA-138" value="" style="whiteSpace=wrap;html=1;shape=mxgraph.basic.document;fillColor=none;" vertex="1" parent="1">
          <mxGeometry x="490" y="18.1" width="60" height="75.9" as="geometry" />
        </mxCell>
        <mxCell id="AsswK9h2NQhdAezXCvUA-139" value="Robot.txt" style="text;html=1;align=center;verticalAlign=middle;resizable=0;points=[];autosize=1;strokeColor=none;fillColor=none;" vertex="1" parent="1">
          <mxGeometry x="485" y="41.050000000000004" width="70" height="30" as="geometry" />
        </mxCell>
        <mxCell id="AsswK9h2NQhdAezXCvUA-151" value="" style="edgeStyle=none;rounded=0;orthogonalLoop=1;jettySize=auto;html=1;" edge="1" parent="1" source="AsswK9h2NQhdAezXCvUA-140">
          <mxGeometry relative="1" as="geometry">
            <mxPoint x="520" y="100" as="targetPoint" />
          </mxGeometry>
        </mxCell>
        <mxCell id="AsswK9h2NQhdAezXCvUA-140" value="Queue processor" style="whiteSpace=wrap;html=1;fillColor=none;" vertex="1" parent="1">
          <mxGeometry x="459.8" y="160.00000000000003" width="120" height="140" as="geometry" />
        </mxCell>
        <mxCell id="AsswK9h2NQhdAezXCvUA-145" value="" style="edgeStyle=none;orthogonalLoop=1;jettySize=auto;html=1;rounded=0;entryX=0;entryY=0.5;entryDx=0;entryDy=0;" edge="1" parent="1" target="AsswK9h2NQhdAezXCvUA-140">
          <mxGeometry width="100" relative="1" as="geometry">
            <mxPoint x="350" y="150" as="sourcePoint" />
            <mxPoint x="440" y="140" as="targetPoint" />
            <Array as="points" />
          </mxGeometry>
        </mxCell>
        <mxCell id="AsswK9h2NQhdAezXCvUA-146" value="" style="edgeStyle=none;orthogonalLoop=1;jettySize=auto;html=1;rounded=0;" edge="1" parent="1" source="AsswK9h2NQhdAezXCvUA-126">
          <mxGeometry width="100" relative="1" as="geometry">
            <mxPoint x="360" y="229.58" as="sourcePoint" />
            <mxPoint x="460" y="229.58" as="targetPoint" />
            <Array as="points" />
          </mxGeometry>
        </mxCell>
        <mxCell id="AsswK9h2NQhdAezXCvUA-147" value="" style="edgeStyle=none;orthogonalLoop=1;jettySize=auto;html=1;rounded=0;" edge="1" parent="1" source="AsswK9h2NQhdAezXCvUA-127">
          <mxGeometry width="100" relative="1" as="geometry">
            <mxPoint x="320" y="310" as="sourcePoint" />
            <mxPoint x="460" y="230" as="targetPoint" />
            <Array as="points" />
          </mxGeometry>
        </mxCell>
        <mxCell id="AsswK9h2NQhdAezXCvUA-148" value="" style="edgeStyle=none;orthogonalLoop=1;jettySize=auto;html=1;rounded=0;entryX=-0.056;entryY=0.494;entryDx=0;entryDy=0;entryPerimeter=0;" edge="1" parent="1" target="AsswK9h2NQhdAezXCvUA-125">
          <mxGeometry width="100" relative="1" as="geometry">
            <mxPoint x="190" y="230" as="sourcePoint" />
            <mxPoint x="280" y="140" as="targetPoint" />
            <Array as="points" />
          </mxGeometry>
        </mxCell>
        <mxCell id="AsswK9h2NQhdAezXCvUA-149" value="" style="edgeStyle=none;orthogonalLoop=1;jettySize=auto;html=1;rounded=0;" edge="1" parent="1">
          <mxGeometry width="100" relative="1" as="geometry">
            <mxPoint x="190" y="232.98" as="sourcePoint" />
            <mxPoint x="290" y="232.98" as="targetPoint" />
            <Array as="points" />
          </mxGeometry>
        </mxCell>
        <mxCell id="AsswK9h2NQhdAezXCvUA-150" value="" style="edgeStyle=none;orthogonalLoop=1;jettySize=auto;html=1;rounded=0;exitX=1;exitY=0.5;exitDx=0;exitDy=0;exitPerimeter=0;" edge="1" parent="1" source="AsswK9h2NQhdAezXCvUA-99">
          <mxGeometry width="100" relative="1" as="geometry">
            <mxPoint x="170" y="260" as="sourcePoint" />
            <mxPoint x="290" y="320" as="targetPoint" />
            <Array as="points" />
          </mxGeometry>
        </mxCell>
        <mxCell id="AsswK9h2NQhdAezXCvUA-153" value="/year/date/month/day/timestamp&lt;div&gt;/categories&lt;/div&gt;" style="text;html=1;align=center;verticalAlign=middle;resizable=0;points=[];autosize=1;strokeColor=none;fillColor=none;" vertex="1" parent="1">
          <mxGeometry x="565" y="893.21" width="190" height="40" as="geometry" />
        </mxCell>
        <mxCell id="AsswK9h2NQhdAezXCvUA-154" value="1. Introduce delay&lt;div&gt;2. Rotating proxies&lt;/div&gt;&lt;div&gt;3. Exponential backoff&lt;/div&gt;&lt;div&gt;4. Multiple lambda functions&lt;/div&gt;" style="text;html=1;align=center;verticalAlign=middle;resizable=0;points=[];autosize=1;strokeColor=none;fillColor=none;" vertex="1" parent="1">
          <mxGeometry x="432.2" y="300" width="170" height="70" as="geometry" />
        </mxCell>
        <mxCell id="AsswK9h2NQhdAezXCvUA-155" value="" style="outlineConnect=0;dashed=0;verticalLabelPosition=bottom;verticalAlign=top;align=center;html=1;shape=mxgraph.aws3.dynamo_db;fillColor=#2E73B8;gradientColor=none;" vertex="1" parent="1">
          <mxGeometry x="1093" y="441.51" width="56" height="70" as="geometry" />
        </mxCell>
        <mxCell id="AsswK9h2NQhdAezXCvUA-156" value="Dynamo DB to track progress" style="text;html=1;align=center;verticalAlign=middle;resizable=0;points=[];autosize=1;strokeColor=none;fillColor=none;" vertex="1" parent="1">
          <mxGeometry x="1031" y="511.51" width="180" height="30" as="geometry" />
        </mxCell>
        <mxCell id="AsswK9h2NQhdAezXCvUA-157" value="" style="edgeStyle=none;orthogonalLoop=1;jettySize=auto;html=1;rounded=0;entryX=1.007;entryY=0.941;entryDx=0;entryDy=0;entryPerimeter=0;" edge="1" parent="1" target="u7bU3b1OENKQPTIL70ho-17">
          <mxGeometry width="100" relative="1" as="geometry">
            <mxPoint x="1110" y="430" as="sourcePoint" />
            <mxPoint x="1130" y="380" as="targetPoint" />
            <Array as="points" />
          </mxGeometry>
        </mxCell>
        <mxCell id="AsswK9h2NQhdAezXCvUA-158" value="" style="edgeStyle=none;orthogonalLoop=1;jettySize=auto;html=1;rounded=0;" edge="1" parent="1">
          <mxGeometry width="100" relative="1" as="geometry">
            <mxPoint x="940" y="484" as="sourcePoint" />
            <mxPoint x="1080" y="484" as="targetPoint" />
            <Array as="points" />
          </mxGeometry>
        </mxCell>
        <mxCell id="AsswK9h2NQhdAezXCvUA-159" value="Resume in case of failure" style="text;html=1;align=center;verticalAlign=middle;resizable=0;points=[];autosize=1;strokeColor=none;fillColor=none;" vertex="1" parent="1">
          <mxGeometry x="922.2" y="450" width="160" height="30" as="geometry" />
        </mxCell>
      </root>
    </mxGraphModel>
  </diagram>
</mxfile>
